<?xml version="1.0" standalone="no"?>
<!DOCTYPE svg PUBLIC "-//W3C//DTD SVG 20010904//EN"
 "http://www.w3.org/TR/2001/REC-SVG-20010904/DTD/svg10.dtd">
<svg version="1.0" xmlns="http://www.w3.org/2000/svg"
 width="348.000000pt" height="299.000000pt" viewBox="0 0 348.000000 299.000000"
 preserveAspectRatio="xMidYMid meet">
<metadata>
Created by potrace 1.16, written by Peter Selinger 2001-2019
</metadata>
<g transform="translate(0.000000,299.000000) scale(0.100000,-0.100000)"
fill="#000000" stroke="none">
<path d="M1559 2930 c-198 -16 -415 -73 -564 -147 -27 -14 -87 -50 -131 -79
-124 -82 -132 -128 -37 -207 l42 -34 -25 -36 c-37 -55 -54 -60 -97 -31 -73 49
-133 42 -177 -23 -24 -35 -25 -43 -25 -177 1 -159 31 -343 92 -566 78 -288
271 -659 471 -907 19 -23 32 -46 30 -51 -1 -5 -50 12 -108 38 -201 90 -310
120 -447 120 -50 0 -115 5 -145 11 -127 27 -185 42 -210 57 -15 9 -29 14 -32
11 -12 -12 20 -105 54 -158 38 -59 39 -61 19 -71 -11 -6 -51 -14 -89 -17 -88
-7 -101 -15 -75 -43 53 -58 204 -110 410 -140 172 -25 301 -62 471 -134 167
-71 220 -84 315 -81 60 2 90 9 138 32 60 29 61 29 79 10 26 -29 101 -64 154
-72 50 -8 145 8 193 32 17 8 47 31 67 51 35 33 39 35 65 22 124 -58 237 -73
343 -45 36 9 139 47 230 84 197 81 292 111 462 146 173 35 270 70 351 127 35
25 29 34 -30 41 -27 3 -70 14 -95 24 l-47 18 30 45 c42 64 89 174 77 185 -2 2
-30 -9 -63 -26 -67 -33 -156 -52 -320 -68 -167 -17 -289 -52 -452 -131 -78
-38 -164 -72 -190 -76 l-48 -7 27 35 c164 214 278 411 371 633 31 76 92 256
106 315 64 274 82 403 84 610 2 147 0 161 -19 187 -33 44 -75 42 -166 -6 l-75
-40 -22 20 c-20 19 -38 68 -30 86 2 5 22 20 46 35 36 23 43 33 43 60 0 60 -27
85 -159 154 -278 145 -590 209 -892 184z m414 -54 c48 -9 135 -32 195 -52 116
-38 329 -139 376 -178 39 -33 30 -64 -26 -96 -24 -13 -68 -40 -99 -61 l-56
-37 -92 44 c-180 87 -281 114 -497 135 -145 14 -280 2 -425 -37 -95 -26 -249
-94 -322 -142 -26 -18 -43 -23 -52 -16 -56 41 -175 148 -175 158 0 43 210 165
388 225 88 29 262 65 362 75 89 8 337 -2 423 -18z m-19 -317 c108 -23 188 -50
292 -99 61 -30 81 -50 49 -50 -19 0 -55 -57 -55 -87 0 -38 31 -91 65 -108 31
-17 89 -17 128 -1 54 24 -21 -463 -106 -684 -76 -197 -175 -378 -295 -538
l-84 -114 -32 31 c-67 65 -225 92 -312 52 -22 -10 -60 -37 -84 -59 l-43 -42
-29 33 c-50 56 -188 260 -236 347 -99 183 -186 398 -221 552 -27 111 -51 282
-51 353 0 51 2 56 18 50 37 -16 60 -16 95 -1 45 18 77 68 77 120 0 31 -7 45
-35 72 l-36 33 58 29 c127 64 286 113 438 136 65 10 302 -5 399 -25z m537
-143 l27 -44 -25 -11 c-13 -6 -32 -11 -43 -11 -15 0 -19 -9 -22 -42 -2 -36 -8
-45 -31 -56 -23 -11 -34 -11 -57 -2 -61 25 -58 121 4 128 17 2 43 19 66 43 20
21 41 39 46 39 5 0 21 -20 35 -44z m-1544 -25 c23 -23 34 -28 61 -24 44 7 72
-18 72 -65 0 -46 -24 -72 -66 -72 -33 0 -74 36 -74 66 0 8 -7 14 -15 14 -9 0
-32 7 -51 15 l-35 15 33 40 c18 22 36 40 40 40 4 0 20 -13 35 -29z m1823 14
c40 -48 8 -487 -52 -710 -53 -198 -125 -391 -204 -548 -92 -182 -324 -505
-452 -631 l-50 -48 5 104 c5 93 3 112 -21 192 l-27 88 39 47 c60 71 164 227
214 321 161 300 253 627 265 942 l6 147 36 12 c20 7 74 31 121 55 94 49 102
51 120 29z m-2029 -68 c30 -17 73 -40 96 -51 l42 -18 5 -77 c19 -241 44 -374
105 -560 86 -260 285 -617 437 -781 l33 -35 -16 -65 c-15 -65 -14 -264 3 -318
3 -12 2 -22 -4 -22 -10 0 -202 192 -264 265 -41 47 -131 174 -213 300 -215
330 -384 852 -388 1200 -2 108 1 136 16 163 15 27 23 32 55 32 25 0 57 -11 93
-33z m1077 -1417 c49 -22 55 -40 12 -40 -37 0 -117 -39 -147 -72 -49 -53 -71
-158 -53 -257 6 -34 14 -69 17 -77 3 -9 -11 -22 -48 -39 -80 -37 -94 -34 -110
23 -21 71 -18 254 5 321 22 64 84 131 136 148 56 18 140 15 188 -7z m1462 -9
c0 -10 -59 -117 -85 -153 -8 -13 -15 -26 -15 -30 0 -9 124 -48 151 -48 36 0
19 -20 -47 -56 -43 -23 -123 -44 -279 -74 -188 -36 -244 -53 -425 -130 -195
-83 -259 -101 -360 -101 -71 -1 -96 4 -153 28 -38 16 -67 33 -66 38 5 16 149
156 149 145 0 -6 10 -10 23 -9 21 0 21 1 2 10 -18 8 -18 8 5 6 26 -2 38 -32
25 -65 -6 -16 -8 -15 -20 1 -18 25 -60 19 -60 -8 0 -16 8 -21 39 -23 34 -3 44
1 68 29 32 36 35 44 14 36 -9 -4 -17 2 -21 14 -4 10 -18 25 -32 32 l-26 14 29
32 c24 27 42 35 104 47 47 9 112 32 175 63 189 92 322 128 555 152 72 7 137
20 175 34 69 27 75 28 75 16z m-1358 -106 c26 -56 31 -81 35 -168 7 -129 -8
-203 -50 -259 -49 -64 -104 -88 -200 -88 -87 0 -143 22 -172 67 -14 21 -14 24
2 28 10 3 52 22 93 43 118 60 147 119 136 287 -5 96 -5 101 17 115 20 14 81
37 100 39 4 1 22 -28 39 -64z m-1582 21 c76 -17 137 -24 280 -31 151 -8 167
-13 485 -145 70 -29 93 -46 190 -140 61 -58 123 -116 140 -127 36 -26 26 -42
-42 -68 -80 -31 -234 -10 -367 50 -189 84 -267 107 -531 155 -163 30 -240 51
-308 87 l-32 16 65 13 c69 15 120 32 120 43 0 3 -20 32 -45 63 -51 66 -69 114
-39 104 11 -3 48 -12 84 -20z"/>
<path d="M1830 2850 c0 -5 6 -10 14 -10 7 0 19 -7 26 -15 11 -13 -2 -14 -109
-8 -88 4 -121 3 -121 -5 0 -8 24 -12 71 -12 52 0 70 -3 66 -12 -2 -8 -21 -13
-46 -12 -33 1 -41 -3 -41 -17 0 -28 -17 -31 -39 -7 l-21 22 0 -26 c0 -14 7
-31 15 -38 20 -17 62 -5 70 20 8 27 19 25 39 -5 9 -14 26 -25 38 -25 12 0 29
-7 39 -16 17 -15 18 -13 25 45 8 74 26 82 22 10 -2 -35 1 -53 10 -56 8 -3 12
6 12 29 0 44 10 78 23 78 6 0 8 -19 4 -49 -4 -37 -2 -53 9 -61 11 -10 14 -8
14 11 l0 24 21 -25 c19 -23 20 -23 14 -3 -3 12 -2 24 4 27 15 10 41 -5 39 -22
-5 -70 15 -67 31 3 13 55 28 68 50 41 17 -20 3 -50 -15 -35 -18 14 -29 6 -20
-16 15 -40 66 -23 66 21 0 13 5 24 11 24 7 0 9 -10 5 -26 -17 -65 -17 -80 -3
-92 11 -10 16 -3 26 43 12 55 23 64 51 45 13 -9 10 -14 -14 -34 -36 -30 -27
-49 20 -40 33 6 34 6 28 -24 -10 -50 12 -45 35 9 12 31 26 49 33 47 18 -6 16
-43 -2 -43 -8 0 -16 -10 -18 -22 -2 -16 4 -26 22 -34 16 -8 25 -19 23 -32 -3
-26 20 -33 28 -8 3 11 17 36 31 56 18 26 22 41 15 49 -12 14 -138 73 -213 101
-45 16 -66 45 -33 45 20 0 19 16 -1 24 -20 8 -47 -13 -40 -31 6 -16 2 -16 -45
-3 -27 7 -39 17 -43 35 -13 53 -91 72 -111 28 -14 -32 -37 -29 -58 7 -17 28
-57 42 -57 20z"/>
<path d="M1435 2798 c-57 -9 -99 -28 -63 -28 26 0 30 -17 12 -45 -15 -23 -15
-25 0 -31 9 -4 25 1 35 10 24 22 51 20 51 -3 0 -15 18 -31 34 -31 1 0 1 28 0
63 -3 61 -3 61 6 18 5 -25 16 -52 25 -60 13 -14 15 -8 13 52 -3 76 2 73 -113
55z"/>
<path d="M1189 2780 c-15 -10 -6 -15 36 -22 13 -2 -3 -12 -45 -27 -87 -33
-250 -108 -250 -116 0 -4 11 -4 25 -1 33 8 33 -13 0 -42 -37 -32 -17 -72 35
-71 l25 0 -22 11 c-13 6 -23 17 -23 25 0 21 28 27 45 9 25 -24 38 -20 31 10
-6 23 -4 25 14 19 16 -5 23 -2 27 14 5 21 33 30 33 11 0 -5 7 -10 15 -10 8 0
15 4 15 9 0 5 -7 25 -15 44 -19 47 -20 46 12 58 20 7 28 6 35 -3 15 -24 9 -40
-12 -33 -15 5 -20 2 -20 -13 0 -13 11 -24 31 -31 50 -17 68 -14 41 7 -21 16
-22 20 -8 31 12 10 17 9 28 -8 7 -12 20 -21 29 -21 16 0 15 4 -2 50 -10 28
-15 50 -11 50 5 0 15 -18 22 -40 7 -22 19 -40 27 -40 16 0 16 8 -1 56 -7 22
-11 44 -9 51 3 7 -3 9 -16 6 -12 -3 -27 -1 -34 4 -21 17 -43 22 -58 13z"/>
<path d="M1555 2397 c-66 -32 -95 -65 -111 -127 -21 -82 8 -155 85 -210 20
-15 18 -17 -57 -96 -93 -98 -145 -172 -180 -256 -24 -56 -27 -77 -27 -179 0
-113 1 -116 38 -191 42 -86 114 -160 194 -199 41 -20 63 -24 148 -24 55 0 118
6 141 12 99 31 246 164 313 284 83 149 102 282 51 363 -26 43 -99 80 -190 96
-157 27 -212 59 -227 131 -7 38 -19 37 -27 -2 -15 -74 -8 -106 32 -147 40 -43
99 -62 190 -62 50 -1 120 -14 163 -31 95 -38 45 -265 -86 -388 -95 -90 -235
-146 -360 -144 -136 2 -221 47 -286 153 -32 52 -34 59 -34 150 0 86 3 101 32
162 87 183 239 325 450 418 84 38 86 39 104 89 9 28 14 53 9 56 -8 5 -176 -79
-238 -120 -45 -30 -59 -28 -127 11 -99 57 -100 152 -1 195 43 18 63 21 141 17
50 -3 101 -11 114 -17 19 -10 22 -10 19 0 -2 7 -27 25 -56 42 -74 41 -150 46
-217 14z"/>
<path d="M2550 2071 c-15 -29 -12 -77 5 -91 16 -13 142 -40 150 -32 3 3 5 13
5 23 0 13 -13 18 -57 24 -64 8 -85 19 -76 41 4 12 18 14 74 8 64 -6 69 -5 69
13 0 17 -9 21 -52 27 -86 10 -106 8 -118 -13z"/>
<path d="M2520 1915 c0 -9 12 -18 30 -21 40 -8 38 -20 -5 -34 -19 -6 -35 -18
-35 -26 0 -8 2 -14 4 -14 2 0 39 -7 81 -16 65 -13 79 -14 86 -2 14 21 10 28
-15 28 -38 0 -40 18 -4 28 22 5 34 15 36 29 3 18 -5 22 -73 32 -98 14 -105 14
-105 -4z"/>
<path d="M2406 1483 c-7 -17 9 -33 32 -33 6 0 12 -4 12 -10 0 -5 -15 -10 -34
-10 -22 0 -36 -6 -40 -16 -9 -24 -9 -24 33 -24 31 0 41 -4 46 -20 7 -21 45
-36 70 -26 19 7 56 67 53 85 -2 9 -128 64 -164 71 -1 0 -5 -8 -8 -17z"/>
<path d="M722 2027 c-96 -55 -95 -74 3 -99 91 -23 105 -23 105 2 0 11 -6 20
-14 20 -22 0 -30 49 -11 69 18 21 20 51 3 51 -7 0 -46 -19 -86 -43z"/>
<path d="M763 1793 c-61 -13 -73 -19 -73 -35 0 -18 4 -20 47 -13 l46 7 -31
-40 c-43 -54 -43 -77 1 -68 73 14 132 34 131 45 -1 6 -2 15 -2 20 -1 6 -19 7
-39 4 l-38 -6 28 30 c28 30 37 74 15 72 -7 -1 -46 -8 -85 -16z"/>
<path d="M835 1591 c-68 -47 -93 -85 -63 -95 7 -3 52 -6 101 -8 68 -2 87 0 87
10 0 8 -9 16 -20 19 -25 7 -48 72 -30 83 8 5 9 13 3 24 -7 13 -19 9 -78 -33z"/>
<path d="M895 1434 c-38 -18 -74 -35 -78 -36 -5 -2 -5 -11 -2 -21 5 -12 18
-17 45 -17 51 0 57 -14 26 -51 -27 -32 -34 -69 -14 -69 26 0 168 65 168 77 0
20 -16 23 -49 12 -41 -14 -46 -8 -21 24 26 33 25 37 -10 37 -36 0 -40 17 -5
26 24 6 35 37 18 47 -5 2 -39 -11 -78 -29z"/>
<path d="M1017 1252 c-9 -10 -23 -36 -30 -57 -16 -47 -34 -56 -43 -21 -4 17
-13 26 -26 26 -18 0 -20 -4 -14 -32 9 -46 38 -72 69 -64 18 4 32 22 52 63 22
47 28 54 36 40 6 -9 9 -25 7 -34 -2 -12 3 -18 17 -18 29 0 32 53 5 88 -25 31
-50 34 -73 9z"/>
<path d="M1064 1091 c-60 -37 -66 -127 -11 -166 62 -43 157 5 157 80 0 49 -15
74 -55 91 -44 18 -54 18 -91 -5z"/>
<path d="M3006 765 c-12 -19 -23 -24 -37 -20 -11 4 -19 2 -19 -4 0 -6 15 -11
33 -11 42 0 66 -15 50 -31 -7 -7 -17 -8 -30 -1 -11 6 -25 7 -35 1 -11 -6 -18
-4 -22 6 -3 8 -13 15 -23 15 -15 0 -15 -1 2 -13 10 -8 15 -19 11 -25 -11 -19
-34 -14 -41 8 -3 11 -11 20 -17 20 -6 0 -5 -6 2 -15 22 -26 -3 -42 -34 -21
-34 22 -62 20 -80 -5 -8 -12 -18 -19 -23 -16 -5 3 -9 -7 -8 -21 0 -21 -5 -28
-22 -30 -13 -2 -23 1 -23 7 0 6 5 11 10 11 6 0 10 7 10 15 0 8 -9 15 -20 15
-11 0 -20 -7 -20 -15 0 -12 -4 -13 -19 -5 -14 7 -23 6 -33 -3 -7 -8 -29 -16
-48 -19 -56 -10 -137 -48 -121 -57 8 -5 9 -11 3 -15 -5 -3 -15 1 -22 9 -16 20
-59 19 -67 -1 -3 -8 0 -21 6 -27 10 -9 16 -7 27 8 15 20 15 20 30 1 18 -25 18
-46 0 -46 -8 0 -23 -3 -33 -6 -13 -4 -15 -3 -4 4 8 6 9 12 3 16 -14 8 -35 -21
-28 -39 11 -28 80 -10 91 25 3 11 11 18 16 14 5 -3 25 0 44 6 38 13 45 33 19
62 -16 16 -15 18 2 25 10 4 19 2 22 -5 4 -14 34 -16 48 -2 6 6 15 5 24 -1 11
-8 12 -12 3 -16 -7 -2 -13 -12 -12 -21 0 -11 2 -12 6 -4 9 23 23 12 17 -13 -5
-22 -3 -25 19 -25 54 0 47 57 -9 84 -29 13 -34 20 -25 29 9 9 14 8 21 -3 5 -8
10 -11 10 -6 0 5 9 1 19 -8 25 -22 62 -17 76 10 8 17 14 19 33 11 17 -8 26 -6
41 7 10 9 25 14 34 11 8 -4 18 -2 22 4 3 6 17 11 30 11 13 0 27 5 30 10 4 6
13 7 23 1 11 -6 24 -5 36 1 10 6 36 10 57 10 21 -1 41 3 44 9 4 5 14 9 24 9
10 0 24 6 30 14 16 19 -2 56 -26 56 -14 0 -14 -2 1 -19 12 -13 14 -21 6 -26
-6 -4 -20 2 -31 14 -11 12 -25 21 -31 21 -6 0 -3 -9 7 -20 17 -18 17 -20 1
-26 -11 -4 -22 1 -32 15 -8 11 -22 21 -30 21 -12 0 -13 4 -4 21 17 31 5 34
-14 4z"/>
<path d="M1060 551 c0 -6 -15 -7 -34 -4 -28 4 -36 1 -46 -16 -14 -28 2 -51 36
-51 12 0 26 -4 29 -10 3 -5 17 -10 29 -10 13 0 29 -7 36 -15 14 -17 50 -3 50
20 0 24 20 17 30 -11 6 -16 16 -24 27 -22 34 6 23 28 -27 53 -45 23 -51 24
-46 8 6 -21 -9 -51 -21 -40 -4 5 -8 23 -9 42 0 24 5 36 20 44 18 10 17 11 -11
7 -18 -3 -35 -1 -38 4 -8 13 -25 13 -25 1z"/>
</g>
</svg>
