<?xml version="1.0" standalone="no"?>
<!DOCTYPE svg PUBLIC "-//W3C//DTD SVG 20010904//EN"
 "http://www.w3.org/TR/2001/REC-SVG-20010904/DTD/svg10.dtd">
<svg version="1.0" xmlns="http://www.w3.org/2000/svg"
 width="1000.000000pt" height="1000.000000pt" viewBox="0 0 1000.000000 1000.000000"
 preserveAspectRatio="xMidYMid meet">
<metadata>
Created by potrace 1.16, written by Peter Selinger 2001-2019
</metadata>
<g transform="translate(0.000000,1000.000000) scale(0.100000,-0.100000)"
fill="#000000" stroke="none">
<path d="M0 5000 l0 -5000 5000 0 5000 0 0 5000 0 5000 -5000 0 -5000 0 0
-5000z m5360 3235 c25 -3 65 -12 90 -20 25 -7 83 -16 130 -19 47 -3 96 -8 110
-11 14 -2 52 -9 85 -14 33 -6 103 -24 155 -40 52 -17 129 -40 170 -52 178 -53
446 -164 560 -233 14 -9 81 -43 150 -76 68 -33 132 -68 142 -76 9 -9 22 -13
29 -8 8 4 10 3 5 -4 -4 -7 -1 -12 8 -12 23 0 84 -94 101 -155 10 -36 14 -118
5 -125 -3 -3 -13 -16 -22 -30 -8 -14 -57 -49 -107 -79 -55 -33 -91 -60 -91
-70 1 -9 13 -47 28 -86 21 -54 35 -75 66 -95 l38 -27 72 36 c39 19 73 38 76
42 11 15 161 79 210 90 62 13 125 7 149 -15 10 -9 21 -13 26 -9 4 5 5 3 2 -4
-4 -6 6 -24 22 -40 22 -23 31 -44 41 -100 14 -88 19 -307 9 -433 -5 -52 -11
-149 -14 -215 -6 -137 -11 -197 -26 -310 -17 -124 -77 -449 -103 -555 -13 -52
-29 -126 -36 -165 -7 -38 -16 -74 -20 -80 -4 -5 -11 -28 -14 -50 -7 -38 -93
-306 -131 -405 -9 -25 -26 -70 -37 -100 -38 -104 -100 -255 -130 -320 -16 -36
-40 -87 -52 -115 -51 -114 -145 -296 -202 -390 -33 -55 -63 -107 -67 -115 -8
-17 -8 -17 -94 -150 -115 -176 -161 -245 -192 -288 -17 -24 -28 -48 -25 -54 4
-6 3 -8 -3 -5 -6 4 -27 -15 -47 -41 -19 -26 -40 -52 -45 -58 -38 -46 -79 -112
-73 -119 4 -5 2 -5 -5 -1 -6 3 -15 1 -19 -5 -13 -21 160 10 240 43 16 7 123
59 236 115 113 56 236 113 274 127 38 15 74 30 80 35 26 21 374 110 491 126
22 3 74 12 115 20 41 8 140 19 220 25 319 23 443 49 593 126 26 13 54 24 62
24 16 0 27 8 66 43 28 25 69 23 69 -4 0 -35 -48 -205 -68 -241 -10 -18 -31
-55 -46 -83 -16 -27 -43 -71 -61 -96 -18 -26 -40 -60 -49 -77 l-16 -31 38 -12
c20 -6 42 -15 48 -20 6 -5 35 -13 65 -20 30 -6 73 -17 97 -25 46 -15 143 -21
160 -10 13 8 32 -24 32 -54 0 -11 -7 -23 -16 -27 -8 -3 -13 -12 -10 -20 3 -8
2 -12 -3 -8 -5 3 -33 -11 -62 -30 -59 -38 -217 -118 -282 -141 -76 -28 -271
-86 -332 -99 -101 -22 -205 -43 -325 -65 -63 -12 -133 -28 -155 -35 -22 -7
-69 -20 -105 -29 -36 -9 -96 -28 -135 -42 -38 -14 -97 -33 -131 -43 -33 -10
-69 -23 -80 -29 -21 -12 -58 -27 -159 -67 -38 -15 -95 -38 -125 -51 -30 -12
-66 -26 -80 -30 -14 -3 -47 -17 -75 -29 -152 -70 -215 -94 -310 -120 -27 -8
-77 -21 -109 -30 -56 -15 -253 -37 -267 -29 -3 2 -33 6 -65 9 -108 11 -244 54
-396 123 l-86 40 -83 -80 c-57 -55 -100 -88 -138 -105 -31 -13 -69 -30 -86
-38 -100 -48 -341 -64 -463 -31 -97 26 -210 85 -272 143 l-56 52 -30 -23 c-44
-34 -230 -103 -311 -116 -62 -10 -259 -8 -338 4 -40 5 -112 28 -250 76 -56 20
-83 32 -249 110 -35 17 -69 30 -75 30 -6 0 -19 4 -29 10 -57 32 -389 147 -522
180 -65 16 -213 43 -445 80 -33 6 -82 12 -110 15 -158 17 -275 44 -444 101
-187 63 -374 165 -409 224 -10 16 -21 27 -24 24 -3 -3 -5 3 -4 13 2 27 46 53
92 53 60 0 241 28 302 47 53 16 72 30 56 42 -29 20 -112 152 -165 261 -30 62
-53 214 -35 229 12 10 66 3 66 -9 0 -15 75 -47 150 -65 41 -10 84 -21 95 -26
11 -4 34 -10 50 -14 17 -3 41 -8 55 -10 238 -46 315 -56 422 -51 187 9 487
-39 653 -103 11 -4 45 -16 75 -25 30 -10 89 -33 130 -51 41 -18 125 -56 185
-83 115 -51 210 -89 235 -94 8 -2 21 -9 28 -16 7 -6 17 -12 22 -12 5 0 -32 54
-81 120 -53 70 -95 117 -101 114 -7 -4 -8 -2 -4 4 6 11 -22 59 -91 156 -15 22
-57 83 -93 137 -126 190 -164 244 -172 247 -5 2 -6 8 -3 12 8 12 -41 80 -51
72 -5 -4 -6 -3 -2 2 6 7 -29 82 -52 111 -11 13 -85 163 -150 300 -28 61 -59
119 -68 129 -10 11 -12 17 -6 13 6 -3 0 15 -12 41 -13 26 -38 86 -58 132 -19
47 -49 119 -66 160 -52 123 -115 321 -182 570 -19 71 -26 102 -47 203 -4 23
-20 94 -34 157 -14 63 -31 149 -36 190 -6 41 -15 104 -21 140 -30 189 -40 277
-47 424 -9 188 -8 238 8 326 11 64 64 190 80 190 4 0 10 8 13 18 9 28 139 92
187 92 37 0 90 -17 129 -41 8 -5 27 -14 43 -20 15 -6 27 -15 27 -20 0 -5 20
-18 44 -30 40 -19 47 -19 73 -6 15 8 38 26 49 39 28 30 98 137 93 141 -22 15
-150 120 -169 139 -37 36 -70 108 -70 154 0 46 42 121 93 167 32 28 114 87
122 87 3 0 37 22 77 49 40 27 92 59 115 71 24 12 41 25 38 29 -2 4 2 8 10 8
15 0 59 19 175 78 36 18 89 40 118 50 28 9 52 20 52 24 0 4 10 8 22 8 13 1 32
6 43 11 50 24 150 59 188 66 16 4 51 12 187 46 63 16 131 32 150 35 19 3 73
12 120 20 148 25 292 42 375 44 44 2 82 5 85 8 6 6 497 -5 560 -12z"/>
<path d="M4865 8140 c-44 -4 -129 -11 -188 -14 -60 -4 -132 -11 -160 -17 -29
-5 -97 -16 -152 -25 -213 -32 -274 -45 -495 -111 -64 -19 -284 -100 -308 -113
-10 -5 -81 -40 -158 -79 -122 -60 -272 -147 -311 -181 -7 -5 -15 -10 -18 -10
-14 0 -107 -87 -121 -113 -12 -22 -12 -32 -3 -50 16 -29 79 -87 96 -87 8 0 16
-7 19 -15 4 -8 10 -15 15 -15 5 0 17 -8 28 -17 10 -10 46 -40 80 -68 34 -27
85 -73 114 -101 l52 -51 63 44 c53 36 139 84 301 169 70 37 254 113 321 133
41 13 102 32 135 42 33 10 80 23 105 28 163 33 211 41 345 56 195 23 550 16
730 -14 303 -49 442 -80 569 -125 55 -19 103 -33 108 -30 4 3 8 1 8 -5 0 -5
10 -13 23 -17 12 -4 55 -22 95 -41 40 -18 78 -31 85 -27 7 4 9 4 5 -1 -10 -10
29 -38 41 -30 5 3 12 1 16 -5 7 -12 73 -43 91 -43 7 0 11 -3 9 -6 -2 -4 23
-20 56 -37 l59 -31 30 22 c16 12 26 26 22 30 -4 5 -2 5 5 2 6 -4 17 -1 25 6
34 33 242 157 263 157 8 0 15 4 15 9 0 5 9 12 19 16 25 8 89 68 91 86 5 35 -4
50 -52 88 -29 22 -58 45 -64 50 -5 4 -21 14 -35 21 -13 7 -26 16 -29 20 -6 9
-323 170 -334 170 -5 0 -47 19 -95 41 -47 23 -108 48 -136 56 -27 8 -54 18
-60 22 -16 12 -200 72 -263 86 -31 7 -102 25 -157 40 -224 60 -696 105 -900
85z m537 -95 c14 -12 28 -30 32 -40 12 -36 34 -57 70 -65 l36 -8 0 37 c0 33 5
40 39 59 49 28 105 28 155 1 58 -31 77 -53 96 -111 16 -51 18 -53 72 -69 102
-30 108 -31 102 -14 -10 25 16 72 46 85 22 9 35 8 63 -3 19 -9 37 -14 39 -12
2 2 4 -13 3 -33 0 -38 -3 -39 -42 -27 -18 5 -23 2 -23 -13 0 -29 47 -62 95
-68 6 0 24 -6 40 -13 17 -6 44 -16 60 -22 17 -6 55 -23 85 -36 30 -14 79 -34
107 -45 29 -10 55 -23 58 -28 3 -5 31 -21 63 -37 31 -15 66 -36 76 -45 11 -10
23 -18 27 -18 4 0 9 -12 12 -26 3 -19 0 -27 -15 -33 -21 -8 -23 -11 -90 -137
-68 -128 -61 -123 -97 -83 -33 36 -38 57 -18 78 8 10 9 15 1 18 -63 23 -100
51 -110 83 -9 28 -12 31 -18 15 -3 -11 -6 -24 -7 -30 -4 -39 -50 -46 -73 -10
-20 30 -20 48 -1 86 15 28 15 30 -11 39 -22 9 -29 7 -41 -10 -17 -25 -69 -27
-95 -3 -26 23 -24 78 4 97 12 9 30 16 39 16 14 0 39 38 39 60 0 8 -70 33 -76
27 -1 -1 -15 -56 -31 -122 -26 -106 -32 -120 -50 -120 -14 0 -32 15 -52 45
-26 40 -28 47 -16 70 7 14 16 36 20 50 l7 25 -21 -27 c-18 -23 -31 -28 -65
-28 -48 0 -86 22 -86 51 0 10 -4 19 -10 19 -11 0 -23 -39 -19 -61 4 -22 -19
-69 -33 -69 -21 0 -32 13 -46 53 -8 23 -11 53 -7 76 6 37 5 39 -24 46 -17 3
-34 7 -38 8 -5 1 -8 -10 -9 -25 -1 -16 2 -28 6 -28 3 0 5 -13 2 -30 -6 -40
-26 -38 -55 5 -25 37 -37 37 -37 -2 0 -34 -31 -29 -59 8 -25 33 -24 24 -4 182
4 38 3 47 -10 47 -16 0 -37 -92 -37 -162 0 -54 -11 -98 -25 -98 -7 0 -25 16
-39 35 -26 34 -27 39 -22 133 l5 97 -17 -129 c-19 -148 -26 -156 -87 -100 -28
26 -46 34 -74 34 -45 0 -74 20 -107 71 -30 48 -50 50 -58 6 -14 -76 -129 -106
-186 -48 -16 16 -31 27 -32 25 -3 -3 -3 58 0 104 2 26 42 32 42 6 0 -15 57
-74 72 -74 13 0 22 25 23 60 l0 35 91 -3 c74 -3 92 -1 103 12 8 9 11 19 8 22
-5 5 -187 14 -285 14 -38 0 -42 2 -42 25 0 18 7 26 27 31 35 9 381 -3 458 -16
78 -13 77 -13 65 9 -5 11 -32 27 -59 36 -41 13 -50 20 -53 44 -3 20 0 27 8 24
7 -2 15 0 18 6 8 13 63 -6 98 -34z m-745 -101 c3 -8 0 -26 -7 -38 -9 -18 -8
-45 5 -136 19 -131 15 -144 -40 -114 -38 20 -43 31 -56 109 -7 45 -8 43 -4
-20 2 -38 6 -80 9 -93 7 -31 -15 -38 -64 -22 -34 11 -39 17 -44 55 -6 40 -8
41 -39 37 -18 -3 -44 -18 -58 -33 -18 -20 -37 -29 -57 -29 -62 0 -82 58 -36
103 16 16 24 34 22 49 -3 20 -8 23 -45 20 -39 -2 -43 0 -43 20 0 47 21 55 185
78 100 13 138 20 144 26 2 2 31 4 63 4 44 0 60 -4 65 -16z m-696 -75 c29 -22
40 -24 74 -18 22 4 45 3 51 -2 13 -10 7 -49 -6 -49 -5 0 1 -26 14 -57 47 -124
60 -173 49 -184 -16 -16 -76 4 -89 29 -20 41 -25 36 -9 -8 18 -52 11 -62 -41
-58 -33 3 -42 8 -56 37 -25 50 -43 57 -64 26 -19 -29 -20 -27 24 -49 21 -11
32 -24 32 -38 0 -19 -4 -20 -60 -15 -76 7 -148 40 -156 73 -4 14 -9 23 -11 20
-3 -3 7 -35 22 -71 33 -76 27 -90 -29 -79 -26 4 -41 14 -48 30 -6 13 -15 24
-19 24 -24 0 -39 -15 -39 -41 0 -43 -67 -68 -99 -36 -8 8 -7 -1 3 -25 27 -64
22 -78 -25 -78 -33 0 -47 6 -69 30 -33 35 -37 36 -70 11 -24 -19 -24 -20 -6
-40 10 -11 34 -25 52 -31 23 -8 34 -18 34 -31 0 -23 -36 -25 -105 -8 -62 16
-85 40 -85 93 0 45 20 71 89 117 21 13 22 18 12 37 -11 21 -13 21 -41 7 -32
-16 -55 -12 -64 12 -9 23 7 37 79 68 35 16 61 33 58 38 -3 6 -1 7 5 3 6 -4 33
4 59 17 26 13 71 32 98 42 28 10 58 25 68 33 9 8 17 12 17 9 0 -3 24 5 54 18
30 13 97 38 150 56 53 17 96 35 96 40 0 5 -25 9 -55 9 -54 0 -55 1 -55 28 0
40 8 44 71 40 39 -3 65 -11 90 -29z"/>
<path d="M4642 7410 c-73 -10 -152 -23 -175 -28 -23 -6 -62 -15 -87 -20 -89
-18 -256 -64 -325 -89 -153 -56 -458 -192 -495 -222 l-25 -19 27 -7 c15 -4 34
-15 44 -26 9 -10 21 -16 27 -12 5 3 7 1 4 -4 -4 -6 0 -17 9 -24 9 -7 25 -33
37 -58 44 -93 16 -228 -64 -311 -18 -19 -32 -38 -31 -42 1 -5 -1 -7 -6 -6 -4
0 -29 -10 -57 -23 -65 -31 -172 -31 -234 1 l-42 21 7 -128 c3 -70 8 -131 10
-134 2 -4 6 -38 10 -75 20 -240 111 -681 179 -874 61 -174 117 -316 169 -435
7 -16 23 -56 36 -88 14 -36 27 -56 35 -53 8 3 11 -2 8 -14 -3 -9 14 -56 36
-103 23 -47 41 -90 41 -94 0 -18 61 -104 69 -98 5 3 13 0 17 -6 4 -8 3 -9 -4
-5 -19 11 -14 -4 25 -84 37 -77 67 -123 75 -115 2 2 5 -5 5 -17 2 -25 44 -88
55 -82 4 3 5 -2 2 -10 -4 -10 6 -30 22 -49 16 -19 34 -42 41 -53 10 -16 13
-17 22 -4 7 9 11 10 11 3 0 -6 -5 -15 -10 -18 -6 -4 -3 -17 10 -35 11 -15 20
-31 20 -34 0 -9 81 -116 87 -116 3 0 2 7 -1 16 -3 9 -2 12 5 9 5 -4 8 -12 6
-18 -9 -23 77 -145 97 -139 6 2 8 0 4 -4 -14 -14 57 -98 74 -88 4 3 5 -3 1
-12 -5 -13 -3 -15 7 -9 9 5 11 4 6 -4 -10 -15 13 -43 27 -34 6 3 7 1 3 -5 -4
-7 3 -17 19 -24 19 -8 22 -14 13 -20 -10 -7 -9 -8 2 -5 8 2 14 11 14 20 -1 9
1 15 5 13 4 -3 33 22 66 55 33 32 65 59 72 59 7 0 17 9 23 20 6 11 18 20 26
20 9 0 12 5 8 12 -4 6 -3 8 3 5 11 -7 102 39 115 57 5 7 8 7 8 -2 0 -9 5 -10
18 -4 28 15 191 21 277 11 120 -14 128 -16 158 -28 16 -6 33 -11 38 -11 5 0 9
-4 9 -8 0 -4 22 -16 49 -26 28 -10 55 -24 62 -32 6 -8 16 -14 21 -14 5 0 21
-14 35 -31 14 -16 32 -28 39 -25 8 3 11 0 8 -8 -3 -8 0 -17 7 -22 14 -8 70 50
117 121 15 22 35 49 44 59 10 10 15 24 11 29 -3 6 -1 7 5 3 7 -4 22 10 38 34
15 22 30 40 34 40 4 0 12 11 18 24 6 13 27 45 47 72 20 26 34 53 31 61 -3 8
-2 12 3 9 19 -12 94 112 85 141 -4 13 -3 14 3 5 7 -10 16 -3 36 27 15 22 27
43 27 47 0 3 16 32 36 64 21 34 33 64 28 71 -4 8 -3 10 4 5 7 -4 12 -2 12 5 0
7 7 20 16 30 15 17 11 45 -5 35 -4 -3 -8 1 -8 9 0 11 4 12 14 4 16 -14 43 5
43 29 0 8 6 23 14 31 8 9 16 30 18 46 2 17 9 36 16 43 7 8 10 17 7 22 -3 5 -2
10 2 12 5 1 27 44 51 93 23 50 47 97 52 105 19 30 50 103 50 117 0 8 5 23 10
34 20 37 89 242 85 250 -3 4 -1 9 3 11 9 3 101 379 131 533 44 227 67 364 76
458 11 108 4 357 -11 357 -1 0 -20 -10 -41 -22 -32 -20 -52 -23 -134 -23 -89
0 -99 2 -144 30 -139 86 -187 279 -100 401 19 26 32 51 29 56 -3 4 3 5 12 1
10 -4 15 -2 11 4 -4 6 6 9 24 8 16 -1 32 1 34 5 5 8 -18 28 -50 46 -11 6 -45
24 -75 41 -30 17 -66 34 -80 38 -14 4 -47 18 -75 31 -65 29 -287 109 -345 123
-301 73 -496 98 -820 105 -119 3 -202 -1 -298 -14z m371 -362 c-2 -5 5 -8 16
-8 32 0 160 -65 222 -112 20 -16 39 -28 44 -28 17 0 34 -35 23 -47 -12 -15
-48 -18 -48 -4 0 5 -55 19 -122 32 -157 30 -324 32 -417 4 -84 -24 -166 -69
-191 -105 -30 -42 -41 -124 -25 -178 15 -47 42 -85 56 -76 5 3 6 -1 3 -9 -8
-21 52 -67 144 -111 42 -21 89 -44 103 -51 23 -13 29 -11 67 14 23 15 39 31
35 35 -4 4 0 4 10 0 9 -3 17 -2 17 2 0 5 23 20 50 33 28 14 50 29 50 33 0 4 6
8 14 8 8 0 18 5 22 12 5 7 3 8 -6 3 -9 -5 -11 -4 -6 4 4 6 11 9 16 6 4 -3 39
11 77 31 79 42 104 55 155 80 20 10 34 22 31 27 -3 6 -1 7 5 3 6 -3 36 3 66
15 31 11 66 19 78 17 26 -3 35 -31 19 -62 -6 -11 -24 -61 -40 -109 -16 -49
-31 -90 -33 -92 -5 -4 -148 -65 -188 -80 -159 -60 -563 -314 -552 -348 1 -4
-2 -5 -8 -2 -11 7 -280 -258 -280 -275 0 -5 -13 -24 -29 -42 -59 -68 -142
-216 -191 -343 -4 -11 -12 -32 -19 -48 -53 -132 -67 -299 -36 -433 17 -74 66
-180 82 -177 5 1 9 -7 10 -17 3 -32 58 -104 108 -141 26 -19 56 -44 68 -57 19
-20 97 -62 114 -61 3 1 9 -4 13 -11 4 -6 18 -12 31 -14 13 -1 31 -5 39 -8 45
-17 100 -27 114 -22 9 3 16 2 16 -4 0 -5 10 -10 23 -11 141 -4 179 -4 225 -1
28 2 52 6 52 9 0 3 15 7 33 8 51 2 95 14 107 28 6 7 19 11 29 8 20 -5 54 23
46 38 -4 5 4 9 17 10 63 3 87 8 116 23 18 9 32 21 32 27 0 6 4 7 10 4 12 -8
49 12 75 39 11 12 16 15 10 7 -8 -12 -7 -12 10 -2 80 48 151 103 162 128 9 18
8 20 -6 16 -13 -4 -14 -3 -1 5 8 6 18 8 22 5 17 -10 37 19 34 48 -2 16 1 26 6
23 5 -3 7 -12 4 -20 -3 -8 1 -14 9 -14 8 0 15 7 15 15 0 8 4 15 9 15 5 0 20
14 32 32 13 17 16 28 8 23 -7 -5 -2 3 12 18 33 34 112 194 105 213 -3 9 -1 12
4 9 6 -3 10 2 11 12 1 22 3 31 28 118 44 156 7 325 -81 359 -82 33 -212 55
-443 75 -66 5 -143 14 -172 20 -62 11 -176 64 -206 94 -12 12 -26 22 -32 22
-5 1 -9 7 -7 14 1 7 -9 33 -24 58 -27 47 -32 67 -34 148 -1 61 3 83 28 160 27
83 45 83 66 1 17 -67 51 -136 68 -136 5 0 7 -4 4 -9 -3 -4 4 -17 16 -27 14
-12 18 -14 13 -4 -5 8 3 3 18 -12 14 -16 55 -42 91 -59 54 -26 69 -29 81 -19
10 9 15 9 15 1 0 -6 5 -11 11 -11 5 0 7 6 4 13 -4 6 0 4 9 -6 10 -13 21 -17
37 -12 14 5 19 4 15 -4 -5 -7 2 -11 16 -12 13 -1 32 -3 43 -5 113 -21 155 -27
187 -28 20 -1 34 -4 31 -8 -2 -5 2 -9 9 -10 7 0 18 -2 23 -3 13 -2 63 -24 98
-42 16 -8 37 -13 47 -10 14 4 17 1 13 -12 -6 -14 -3 -13 14 2 16 14 23 15 29
6 4 -7 3 -10 -4 -5 -6 3 -14 1 -17 -5 -8 -11 48 -69 66 -69 6 0 8 -4 5 -8 -3
-5 3 -16 12 -25 28 -26 47 -51 45 -59 -2 -3 4 -22 11 -40 8 -19 17 -54 20 -79
3 -25 8 -52 11 -60 3 -9 1 -62 -4 -120 -13 -130 -55 -259 -140 -424 -62 -121
-71 -138 -104 -187 -10 -15 -15 -33 -11 -39 4 -8 3 -9 -4 -5 -7 4 -21 -9 -35
-31 -14 -21 -61 -76 -105 -122 -45 -47 -78 -89 -75 -94 3 -6 1 -7 -4 -4 -16
10 -125 -85 -118 -102 4 -10 2 -11 -8 -3 -10 9 -22 4 -52 -21 -116 -95 -273
-157 -440 -172 -38 -3 -93 -8 -122 -11 -100 -9 -296 33 -383 81 -14 8 -36 20
-50 27 -14 6 -54 34 -89 61 -35 27 -60 43 -56 36 5 -8 5 -11 0 -7 -4 4 -15 2
-24 -5 -14 -11 -14 -10 -2 6 12 15 11 20 -5 38 -52 58 -100 103 -107 101 -5
-1 -5 3 -1 9 3 6 2 14 -3 18 -5 3 -22 28 -38 54 -15 27 -34 51 -41 54 -8 3
-12 9 -9 13 9 15 -38 101 -52 96 -7 -3 -15 0 -19 6 -4 6 -3 8 4 4 20 -12 23
13 5 46 -9 18 -18 42 -19 53 -1 11 -10 54 -19 95 -25 108 -15 337 20 475 31
122 28 112 48 159 9 21 14 43 10 50 -3 6 -3 8 2 4 4 -4 20 18 36 48 15 31 33
62 40 70 6 8 8 14 4 14 -5 0 2 8 13 19 12 10 19 21 15 25 -3 3 -1 6 6 6 12 0
58 70 53 83 -1 4 4 7 12 7 20 0 29 17 15 26 -8 5 -9 3 -4 -6 5 -9 4 -11 -4 -6
-6 4 -9 12 -5 17 3 5 9 7 14 4 12 -7 81 76 73 89 -3 6 -2 8 2 3 11 -10 56 33
48 46 -3 6 -2 7 4 4 15 -9 67 49 57 65 -4 7 -3 10 1 5 11 -10 76 53 68 66 -3
6 -1 7 5 3 7 -4 12 -2 12 3 0 6 4 11 10 11 11 0 100 80 100 90 0 4 -23 20 -52
35 -58 32 -131 103 -149 146 -6 17 -16 26 -23 22 -6 -3 -8 -3 -4 1 3 4 0 29
-8 54 -43 139 -25 287 50 407 36 59 49 70 141 126 100 60 175 78 312 76 61 -1
109 -5 106 -9z"/>
<path d="M6735 7126 c-49 -27 -118 -92 -142 -133 -25 -44 -27 -45 -67 -40 -54
8 -98 -13 -126 -58 -19 -30 -22 -46 -17 -88 5 -54 29 -112 40 -100 4 3 7 1 7
-5 0 -18 60 -44 101 -44 53 1 107 29 125 64 11 21 15 51 12 96 l-3 66 35 9
c19 5 65 18 102 29 l67 20 -20 22 c-11 11 -26 32 -33 46 -7 14 -22 41 -33 61
-12 20 -23 43 -24 51 -3 12 -8 13 -24 4z"/>
<path d="M3145 6996 c-20 -30 -53 -70 -75 -90 l-38 -34 34 -17 c42 -20 136
-45 169 -45 13 0 26 6 29 13 2 6 4 3 3 -8 -1 -11 2 -41 6 -67 7 -38 16 -54 50
-84 41 -35 43 -36 111 -31 63 4 73 8 99 37 18 20 27 39 24 51 -3 11 -2 17 2
14 14 -8 11 85 -3 119 -8 20 -28 42 -46 51 -37 19 -118 22 -149 5 -12 -6 -26
-10 -30 -8 -4 2 -31 30 -61 63 -85 95 -83 94 -125 31z"/>
<path d="M7310 7001 c-36 -16 -105 -50 -155 -77 -49 -27 -112 -58 -140 -68
-27 -10 -55 -23 -61 -27 -6 -5 -35 -15 -65 -22 l-54 -14 -2 -149 c-3 -267 -40
-663 -64 -689 -5 -5 -9 -32 -9 -61 0 -28 -11 -98 -24 -155 -14 -57 -38 -162
-55 -234 -34 -145 -42 -174 -79 -290 -36 -116 -129 -372 -153 -425 -34 -74
-47 -103 -64 -145 -9 -22 -20 -47 -26 -55 -5 -8 -12 -24 -16 -35 -4 -11 -21
-49 -39 -84 -18 -36 -30 -69 -27 -75 3 -5 2 -6 -3 -3 -6 3 -20 -19 -33 -49
-13 -30 -28 -54 -32 -54 -5 0 -9 -5 -9 -11 0 -6 -23 -52 -51 -102 -28 -51 -52
-97 -52 -104 0 -7 -4 -10 -9 -7 -4 3 -8 2 -8 -3 0 -4 -21 -39 -46 -78 -26 -38
-47 -76 -47 -83 0 -6 -2 -10 -5 -8 -2 3 -40 -45 -83 -106 -101 -140 -116 -160
-162 -213 -21 -24 -36 -49 -32 -55 4 -6 2 -9 -4 -8 -12 3 -71 -61 -71 -78 0
-6 12 -39 26 -75 15 -35 30 -77 35 -94 4 -16 15 -57 23 -90 43 -162 48 -361
13 -527 l-14 -67 23 17 c12 9 28 26 34 38 6 11 25 28 41 38 16 9 29 21 29 25
0 5 23 30 51 57 59 56 64 62 153 167 36 43 66 82 66 86 0 5 16 24 36 43 19 19
36 41 38 49 1 8 19 32 40 54 21 22 44 47 51 55 25 29 115 164 115 172 0 5 10
19 21 31 29 30 132 189 132 204 0 7 4 10 9 7 4 -3 11 3 15 13 3 10 24 44 45
76 21 32 38 61 38 63 0 3 12 21 26 39 15 20 23 39 18 47 -4 7 -4 10 1 6 10 -9
57 51 49 63 -3 5 -1 9 5 9 11 0 107 189 105 207 -1 7 3 10 9 6 6 -4 8 0 4 10
-3 9 -2 16 4 14 12 -3 37 43 84 153 20 47 43 99 50 115 41 90 59 134 84 208
16 45 48 134 71 197 23 63 45 129 50 145 4 17 13 42 19 58 6 15 8 27 5 27 -4
0 -2 6 4 13 17 21 93 291 117 417 29 153 46 246 51 280 3 19 12 71 20 116 8
44 19 127 25 185 5 57 12 118 14 134 24 196 33 604 13 670 -6 22 -11 44 -9 49
4 17 -9 54 -25 70 -22 23 -60 19 -134 -13z m-180 -697 c24 -3 48 -8 52 -10 3
-2 30 -5 58 -5 28 -1 53 -6 56 -10 3 -5 16 -9 30 -9 31 0 36 -13 26 -70 -9
-52 0 -51 -186 -23 -115 17 -138 14 -144 -24 -2 -11 3 -25 10 -31 15 -12 204
-52 266 -56 26 -2 41 -20 36 -45 -14 -71 -13 -71 -48 -71 -18 0 -57 4 -87 10
-30 5 -83 14 -119 20 -75 14 -130 39 -148 70 -18 30 -19 159 -1 190 27 47 87
82 129 75 14 -2 45 -7 70 -11z m-30 -390 c52 -7 120 -20 150 -27 l55 -12 0
-50 c0 -55 9 -48 -110 -81 -64 -18 -62 -21 25 -38 l55 -11 -2 -44 c-1 -24 -7
-49 -13 -55 -10 -10 -159 12 -323 49 -38 8 -72 13 -76 11 -4 -3 -8 14 -10 36
-2 41 22 79 44 71 6 -2 37 10 70 26 l59 29 -49 7 c-62 8 -101 20 -97 28 1 4 2
23 2 42 0 44 24 56 84 43 23 -5 84 -16 136 -24z m-157 -318 c29 -8 95 -21 147
-31 149 -26 151 -26 156 -40 3 -7 0 -31 -6 -54 -8 -29 -16 -41 -30 -41 -23 0
-313 56 -362 70 -39 11 -39 14 -23 88 6 27 41 29 118 8z m269 -194 c10 -10 9
-21 -2 -55 l-15 -42 -80 -3 -80 -3 55 -34 c30 -18 58 -31 62 -29 14 9 21 -48
9 -86 -10 -32 -15 -37 -34 -33 -12 3 -26 9 -32 13 -31 22 -144 78 -149 75 -3
-3 -4 -2 -1 2 3 4 -34 30 -82 58 l-88 52 2 39 c5 68 -7 65 217 62 149 -2 208
-6 218 -16z m-317 -247 c55 -15 118 -31 140 -36 60 -14 93 -29 99 -46 6 -15
-35 -165 -53 -192 -11 -16 -90 -6 -97 13 -3 7 0 34 6 61 12 52 9 59 -32 69
-24 5 -28 2 -41 -37 -13 -39 -16 -42 -48 -39 -59 4 -62 8 -56 56 5 33 2 47 -9
56 -18 16 -18 16 -39 -48 -12 -38 -21 -52 -33 -50 -10 1 -23 -1 -31 -6 -10 -6
-12 -5 -7 2 4 7 1 12 -7 12 -33 0 -35 24 -10 109 13 46 31 94 39 106 14 22 18
23 47 10 18 -7 77 -25 132 -40z m-179 -234 c27 -11 96 -36 154 -56 170 -60
173 -61 165 -93 -11 -49 -62 -147 -89 -174 -40 -39 -85 -52 -135 -38 -47 12
-91 49 -91 76 0 39 -13 45 -100 42 -96 -3 -104 4 -75 67 14 28 23 35 47 35 16
0 27 4 24 8 -2 4 10 6 29 4 18 -2 41 0 50 5 14 8 7 12 -32 23 -62 17 -76 33
-57 68 8 15 14 33 14 40 0 18 40 15 96 -7z m-132 -328 l26 -37 -35 -32 c-49
-45 -46 -57 13 -50 161 19 199 19 222 -2 27 -25 50 -68 50 -94 0 -34 -51 -124
-80 -141 -35 -21 -59 -22 -66 -2 -4 8 -11 12 -17 8 -5 -3 -7 -1 -3 5 3 6 2 13
-4 17 -20 12 -11 51 15 63 14 6 25 19 25 27 0 14 -8 15 -47 10 -27 -4 -63 -11
-82 -17 -41 -13 -115 -5 -138 13 -28 24 -55 97 -48 130 12 52 47 108 80 127
37 21 63 14 89 -25z m-163 -283 c22 -12 45 -18 52 -14 7 4 9 4 5 -1 -5 -5 24
-21 62 -37 39 -15 96 -39 126 -53 30 -14 59 -23 65 -20 5 3 7 0 5 -7 -3 -7 -7
-25 -10 -41 -4 -15 -15 -36 -26 -47 -20 -20 -20 -20 -80 10 -33 16 -64 30 -69
30 -6 0 -43 15 -83 34 -40 19 -89 39 -108 44 -33 8 -35 11 -35 53 0 72 25 85
96 49z m-130 -205 c16 -9 35 -13 41 -9 6 4 8 3 5 -3 -9 -14 149 -97 165 -87 7
4 8 3 4 -4 -4 -7 -2 -12 3 -12 6 0 13 0 16 0 3 0 6 3 8 7 1 4 13 18 26 31 19
19 31 23 58 19 38 -7 63 -23 63 -41 0 -6 -15 -35 -32 -63 -144 -229 -139 -224
-192 -182 -31 24 -33 43 -6 86 l19 32 -22 16 c-12 8 -25 15 -29 15 -4 0 -44
20 -89 45 -45 25 -86 42 -92 38 -6 -3 -7 -1 -3 5 4 7 1 12 -8 12 -22 0 -40 36
-24 47 7 4 19 20 27 36 17 31 22 32 62 12z m-198 -301 c18 -9 40 -23 49 -31 9
-8 22 -12 29 -7 7 4 10 3 6 -3 -9 -15 16 -20 109 -23 43 -1 88 -3 99 -5 73
-10 105 -19 105 -31 0 -15 -39 -86 -55 -97 -5 -4 -39 -5 -74 -1 l-63 6 36 -47
c27 -36 33 -51 26 -65 -5 -9 -6 -21 -2 -25 4 -3 2 -5 -4 -3 -6 1 -20 -8 -31
-21 -24 -29 -46 -24 -71 19 -10 16 -22 27 -26 23 -4 -4 -4 0 0 10 4 11 1 17
-9 17 -8 0 -18 12 -22 28 -12 50 -55 93 -122 124 -35 16 -66 35 -69 43 -7 17
31 105 46 105 6 0 25 -7 43 -16z"/>
<path d="M2513 6914 c-66 -29 -103 -168 -98 -369 5 -164 22 -331 52 -510 14
-82 29 -172 34 -200 4 -27 17 -93 29 -145 12 -52 26 -113 30 -135 33 -162 63
-269 105 -380 12 -33 26 -69 30 -80 4 -11 9 -34 11 -51 1 -18 10 -49 19 -70 9
-22 23 -59 31 -84 9 -25 21 -58 29 -75 7 -16 25 -64 40 -105 14 -41 30 -79 34
-85 5 -5 14 -28 21 -50 7 -22 20 -56 29 -75 10 -19 34 -69 53 -110 20 -41 63
-130 96 -197 32 -68 62 -120 67 -115 4 4 5 1 1 -6 -4 -6 0 -19 8 -28 9 -8 16
-21 16 -28 0 -7 9 -22 20 -34 12 -12 18 -22 14 -22 -3 0 -2 -6 4 -12 5 -7 22
-35 38 -63 15 -27 41 -71 58 -96 17 -26 39 -61 48 -78 11 -20 22 -30 29 -25 7
4 9 3 6 -3 -4 -5 6 -28 21 -51 48 -72 133 -195 183 -263 27 -37 49 -70 49 -74
0 -4 15 -26 32 -49 41 -52 38 -48 101 -130 28 -38 63 -82 77 -96 14 -15 36
-39 49 -54 12 -14 28 -23 34 -19 6 3 7 1 3 -5 -13 -21 465 -502 498 -502 2 0
0 15 -5 33 -11 34 -22 100 -40 237 -21 158 0 423 45 590 l15 55 -32 35 c-18
19 -44 46 -58 60 -14 14 -44 48 -66 77 -22 29 -44 49 -48 45 -5 -4 -5 -1 -1 6
5 8 -9 32 -36 65 -24 29 -59 76 -77 104 -18 30 -38 50 -44 46 -5 -3 -7 -2 -4
4 6 9 -22 58 -96 170 -12 17 -26 29 -31 26 -5 -3 -6 -1 -2 6 4 6 -5 28 -22 49
-32 42 -86 132 -157 269 -27 50 -53 89 -58 86 -6 -3 -7 -1 -3 5 8 13 -98 234
-108 224 -4 -3 -4 2 0 12 4 12 4 17 -2 13 -5 -3 -10 2 -11 11 -1 15 -64 164
-113 267 -35 73 -150 406 -150 435 0 9 -3 20 -7 24 -4 3 -8 12 -9 19 -3 20
-25 100 -39 142 -7 22 -15 54 -18 70 -3 17 -12 57 -21 91 -9 33 -18 77 -20 98
-3 20 -8 40 -10 45 -3 5 -10 44 -15 87 -5 44 -16 133 -25 199 -19 153 -23 197
-32 382 -3 83 -9 155 -13 160 -3 5 -26 17 -51 27 -68 27 -149 67 -205 103 -28
17 -87 50 -131 72 -86 45 -141 52 -201 25z m462 -664 c3 -5 6 -31 7 -57 0 -40
-3 -50 -28 -70 -24 -19 -28 -29 -25 -60 3 -47 25 -83 51 -83 12 0 21 -8 24
-22 3 -13 7 -34 10 -48 9 -46 -4 -53 -75 -40 -62 11 -229 48 -317 72 -64 16
-84 75 -39 114 33 29 97 69 135 84 17 7 32 16 32 20 0 4 8 10 18 14 9 3 49 24
87 45 69 40 108 50 120 31z m54 -424 c7 -8 14 -32 17 -55 6 -49 1 -52 -116
-76 -177 -35 -235 -48 -245 -57 -18 -16 -46 -8 -55 18 -9 22 -14 94 -7 94 10
0 220 43 252 51 22 6 51 13 64 16 14 2 32 8 40 13 23 13 37 12 50 -4z m46
-175 c3 -6 7 -30 9 -54 3 -43 1 -48 -55 -108 -33 -34 -58 -64 -56 -65 2 -2 29
4 61 12 32 8 64 13 72 10 16 -6 39 -79 31 -99 -3 -8 -27 -19 -54 -26 -26 -7
-107 -29 -179 -48 -73 -20 -139 -33 -147 -30 -18 7 -32 66 -23 94 3 11 29 44
56 74 57 60 76 89 61 89 -5 0 -41 -7 -80 -15 -39 -8 -77 -12 -85 -9 -13 5 -33
90 -23 100 8 8 342 81 379 83 15 0 29 -3 33 -8z m128 -421 c22 -51 22 -50 -9
-75 -24 -19 -25 -22 -13 -68 7 -26 17 -47 21 -47 4 0 8 -9 8 -20 0 -15 7 -20
28 -20 15 0 32 -4 37 -8 15 -10 35 -59 35 -83 0 -20 -4 -21 -137 -14 -76 3
-181 9 -233 13 -87 6 -95 9 -107 32 -22 44 -16 87 15 107 15 10 36 26 46 35
11 10 23 18 27 18 4 0 27 16 50 36 24 20 54 40 67 45 14 5 20 14 16 21 -4 7
-3 8 4 4 7 -4 12 -2 12 4 0 6 3 9 8 6 4 -2 23 9 42 25 47 38 62 36 83 -11z
m147 -392 c11 -24 20 -49 20 -56 0 -7 -30 -27 -66 -43 -36 -17 -65 -32 -63
-34 2 -2 39 -5 81 -6 76 -3 76 -3 67 -27 -5 -13 -25 -42 -44 -65 -19 -22 -32
-45 -28 -51 3 -6 3 -8 -2 -4 -9 8 -35 -9 -35 -23 0 -10 61 11 118 40 23 12 46
21 51 21 12 0 51 -72 51 -93 0 -9 -26 -24 -62 -37 -35 -13 -74 -29 -88 -36
-14 -7 -47 -23 -75 -35 -27 -11 -63 -27 -80 -34 -81 -36 -103 -40 -123 -22
-10 10 -19 32 -20 54 -2 39 7 54 87 145 43 49 35 59 -56 65 -103 6 -108 9
-128 52 -9 22 -15 43 -12 48 7 10 101 58 187 95 30 12 84 37 120 55 36 18 69
32 73 33 4 0 17 -19 27 -42z m231 -448 c46 -34 70 -101 67 -183 l-3 -72 -60 0
-60 0 3 44 c4 50 -4 91 -18 91 -10 0 -29 -39 -60 -122 -12 -33 -38 -74 -60
-97 -35 -36 -45 -41 -86 -41 -59 0 -79 12 -113 65 -16 25 -30 43 -32 41 -7 -7
-10 97 -4 122 4 18 12 22 41 22 50 0 74 -15 74 -48 0 -36 21 -64 38 -53 13 8
73 154 75 183 1 9 4 15 8 13 3 -3 15 5 25 16 33 37 108 64 129 47 6 -5 22 -17
36 -28z m137 -354 c21 -2 51 -18 80 -42 26 -21 51 -38 55 -36 5 1 6 -2 2 -7
-3 -6 1 -24 9 -40 22 -41 30 -129 17 -177 -6 -22 -27 -59 -47 -82 -67 -79
-158 -107 -256 -78 -170 49 -225 270 -101 402 40 42 136 76 188 67 11 -2 35
-5 53 -7z"/>
<path d="M3583 3910 c-63 -38 -80 -124 -37 -184 25 -33 56 -46 108 -46 35 0
49 6 79 35 57 55 54 126 -7 183 -42 38 -93 43 -143 12z"/>
<path d="M4890 3621 c-36 -9 -88 -29 -115 -43 -65 -34 -130 -92 -120 -109 5
-8 4 -10 -3 -5 -6 4 -19 -6 -29 -21 -10 -15 -23 -32 -29 -38 -14 -12 -63 -135
-76 -190 -22 -94 -35 -237 -31 -350 3 -66 5 -129 5 -140 0 -72 47 -254 72
-281 14 -15 101 9 196 53 87 41 98 47 94 55 -3 4 2 5 10 2 19 -7 20 0 4 29
-57 107 -72 379 -33 577 0 3 16 35 34 72 24 49 54 87 113 144 45 42 75 73 68
69 -9 -6 -11 -4 -6 4 5 7 14 10 20 8 7 -3 33 4 57 16 24 11 46 21 49 22 3 1
12 4 20 7 60 21 91 28 123 28 54 0 54 16 0 44 -134 67 -283 84 -423 47z"/>
<path d="M8565 3575 c-33 -13 -89 -33 -125 -46 -36 -12 -81 -28 -100 -35 -37
-14 -224 -39 -375 -50 -49 -3 -137 -13 -195 -21 -58 -8 -112 -14 -120 -15 -29
-1 -246 -57 -375 -96 -146 -45 -318 -113 -415 -165 -137 -73 -267 -137 -278
-137 -7 0 -38 -8 -69 -19 -78 -25 -200 -51 -243 -52 -52 -1 -63 -8 -125 -84
l-57 -69 37 -11 c46 -13 84 -49 92 -87 8 -42 28 -29 25 16 l-4 38 39 -3 c23
-2 57 6 86 19 57 26 67 27 67 9 0 -18 -53 -64 -67 -60 -13 5 -26 -25 -17 -38
3 -6 10 -6 17 -1 49 39 146 7 147 -49 0 -24 -40 -61 -59 -54 -9 3 0 -11 20
-32 67 -69 78 -125 34 -169 -21 -21 -33 -24 -82 -23 -32 2 -67 -1 -79 -4 -14
-5 -30 -1 -47 14 -35 27 -37 82 -4 110 l22 18 -26 1 c-36 0 -52 23 -47 65 3
24 0 35 -9 35 -7 0 -13 -8 -13 -19 0 -10 -11 -30 -25 -45 -20 -22 -33 -26 -72
-26 -27 1 -63 -2 -81 -5 -66 -14 -107 66 -63 124 13 17 28 23 55 23 41 0 86
-25 86 -47 0 -21 17 -19 30 4 13 26 13 73 -2 108 -11 27 -12 27 -16 5 -5 -32
-44 -49 -77 -34 -14 6 -25 19 -25 28 0 9 -60 -44 -141 -125 -77 -77 -145 -141
-151 -141 -6 0 -22 -12 -35 -26 l-24 -26 28 -18 c16 -9 46 -23 68 -29 22 -7
67 -25 100 -40 33 -16 76 -33 95 -39 49 -15 204 -34 232 -28 13 3 59 8 103 11
87 6 131 14 215 40 30 9 65 19 78 22 12 3 22 10 22 15 0 5 4 7 9 3 14 -8 184
59 416 165 33 15 77 34 97 41 20 7 34 17 31 23 -4 5 0 7 9 3 9 -3 37 5 64 18
27 14 55 25 62 25 7 0 11 4 8 9 -4 5 3 7 14 4 12 -3 49 6 83 20 92 37 227 74
373 101 71 14 158 32 194 40 36 8 97 20 135 26 91 13 206 37 275 57 135 37
333 122 326 139 -2 6 1 11 8 11 6 0 25 8 41 19 l29 19 -34 3 c-61 4 -244 55
-317 89 -43 19 -53 28 -53 48 0 14 4 25 9 25 5 0 15 12 23 28 7 15 35 60 61
100 27 40 49 81 50 92 1 11 4 20 7 20 12 0 41 61 34 72 -4 6 -3 8 3 5 6 -4 19
10 28 31 10 20 20 40 22 45 2 4 3 7 1 6 -2 -1 -30 -11 -63 -24z m-489 -276 c3
-6 -7 -30 -24 -54 l-30 -42 40 -12 c28 -9 45 -22 60 -46 20 -36 46 -41 71 -16
9 10 6 16 -15 33 -16 11 -28 29 -28 42 0 35 50 22 96 -25 39 -40 64 -50 64
-25 0 16 -26 46 -40 46 -18 0 -18 30 0 40 14 8 29 7 54 -4 90 -37 69 -165 -28
-171 -19 -1 -48 -12 -64 -24 -33 -23 -57 -26 -94 -12 -17 6 -29 5 -43 -5 -10
-8 -33 -14 -49 -14 -17 0 -40 -7 -50 -15 -27 -20 -59 -19 -87 4 -23 19 -24 19
-47 -6 -19 -21 -30 -24 -65 -21 -33 3 -45 0 -59 -16 -12 -16 -27 -20 -60 -20
-32 1 -50 -5 -71 -22 -33 -28 -109 -33 -142 -10 -18 12 -20 11 -22 -12 -2 -40
-55 -82 -103 -82 -21 0 -50 4 -64 10 -14 5 -26 6 -26 1 0 -5 7 -11 14 -14 8
-3 22 -20 31 -37 22 -43 12 -103 -22 -130 -51 -40 -141 -14 -131 37 2 10 -5
22 -16 28 -12 6 -21 21 -21 37 -2 31 4 43 25 50 11 4 8 9 -12 18 -24 11 -31
11 -46 -3 -26 -24 -78 -21 -103 4 -18 18 -26 20 -53 11 -30 -10 -30 -10 -8
-17 46 -15 69 -109 35 -147 -9 -10 -28 -18 -42 -18 -14 0 -35 -7 -45 -15 -11
-8 -39 -15 -63 -15 -33 0 -45 -4 -49 -17 -13 -44 -31 -67 -59 -76 -16 -5 -44
-15 -62 -23 -43 -19 -65 -18 -91 6 -32 30 -33 82 -2 114 24 24 76 25 93 2 18
-24 51 -17 55 13 8 51 -50 127 -64 84 -15 -49 -34 -60 -79 -49 -46 12 -37 107
13 123 37 13 113 -10 146 -44 14 -14 26 -20 26 -13 0 7 -7 18 -16 24 -22 16
-8 42 29 56 18 7 46 18 62 25 98 41 219 77 246 73 24 -4 34 1 50 24 24 32 70
38 107 12 21 -14 22 -14 22 8 0 15 11 29 31 41 29 16 34 16 55 2 25 -16 34
-68 14 -80 -6 -4 -8 -10 -5 -15 3 -4 -5 -6 -17 -2 -14 3 -19 2 -14 -6 13 -21
73 -14 90 10 21 30 20 39 -9 70 -14 15 -25 32 -25 38 0 15 46 12 60 -5 15 -18
30 -11 30 15 0 32 56 70 104 70 36 0 79 -18 96 -40 6 -8 46 -30 54 -30 2 0 12
7 20 16 13 12 14 20 4 37 -17 33 -29 38 -74 31 -53 -8 -84 8 -84 43 0 24 2 25
36 20 33 -6 41 -2 82 38 25 25 54 45 64 45 30 0 21 -39 -17 -77 -29 -29 -31
-35 -17 -40 26 -9 53 -36 63 -61 11 -29 35 -38 55 -21 25 20 13 52 -23 63 -23
6 -33 15 -33 29 0 17 5 19 46 14 35 -4 52 -12 68 -32 19 -24 25 -26 43 -16 32
16 62 14 90 -9 29 -22 53 -13 53 20 0 26 -47 39 -121 33 -53 -4 -67 -2 -79 12
-10 12 -11 21 -3 33 12 20 61 28 76 13 11 -11 16 -7 65 57 33 41 64 53 78 31z"/>
<path d="M5344 3456 c-57 -14 -123 -46 -168 -81 -27 -22 -30 -28 -27 -77 1
-29 9 -86 16 -126 16 -82 13 -249 -5 -327 -16 -70 -16 -67 -27 -95 -6 -14 -19
-45 -29 -69 -10 -25 -34 -61 -53 -82 -40 -40 -138 -114 -173 -129 -13 -6 -30
-14 -38 -19 -28 -17 -110 -51 -175 -73 -36 -11 -65 -24 -65 -27 0 -19 127
-132 173 -154 68 -34 220 -46 345 -27 113 16 148 27 199 61 23 16 45 29 48 29
14 0 74 64 68 73 -3 6 -1 7 5 3 13 -8 69 77 96 144 18 45 40 156 56 285 13
106 -21 396 -57 487 -27 67 -50 107 -58 100 -5 -4 -5 -2 -1 5 12 22 -44 114
-68 112 -6 0 -34 -6 -62 -13z"/>
<path d="M1648 3424 c-17 -16 123 -231 143 -218 5 3 7 -1 4 -8 -3 -7 8 -28 25
-46 16 -18 30 -36 30 -39 0 -2 10 -13 21 -22 32 -25 17 -57 -39 -85 -49 -25
-239 -76 -288 -77 -16 0 -38 -4 -49 -8 -16 -6 -9 -12 40 -30 33 -12 69 -28 80
-35 11 -7 45 -21 75 -31 30 -10 60 -21 65 -25 14 -11 163 -46 275 -65 52 -9
127 -23 165 -30 39 -8 117 -21 175 -30 58 -9 125 -23 149 -31 25 -8 64 -14 87
-14 24 0 46 -5 49 -10 4 -6 14 -10 23 -9 10 1 24 -1 32 -4 8 -3 40 -11 70 -17
30 -7 69 -18 85 -25 17 -7 64 -21 105 -30 41 -10 96 -26 121 -36 26 -10 48
-17 50 -16 2 1 3 0 2 -2 -4 -6 110 -60 127 -61 9 0 24 -6 35 -13 11 -7 36 -19
55 -27 57 -22 124 -50 143 -61 10 -5 23 -7 30 -3 7 4 9 3 4 -1 -11 -12 41 -32
168 -65 167 -43 248 -54 386 -55 98 0 133 4 160 17 19 9 49 22 66 28 18 7 54
26 79 42 43 27 45 30 28 43 -10 7 -23 11 -28 8 -5 -4 -6 -1 -2 5 4 6 -6 18
-23 27 -17 8 -44 28 -60 43 -64 60 -134 117 -142 114 -5 -1 -8 1 -7 6 2 4 -52
63 -119 131 -68 68 -123 125 -123 126 0 11 -112 115 -124 115 -14 0 -156 59
-281 116 -16 7 -86 37 -155 65 -69 28 -129 55 -135 59 -5 4 -30 14 -55 23 -25
8 -76 27 -115 41 -163 61 -328 91 -545 100 -275 11 -438 27 -560 53 -41 9 -82
17 -90 18 -8 1 -22 5 -30 8 -8 3 -44 12 -80 20 -36 8 -72 17 -81 21 -8 4 -18
4 -21 0z m749 -270 c3 -8 1 -26 -5 -38 -9 -20 -7 -25 14 -35 14 -6 24 -19 24
-32 0 -12 8 -23 20 -26 17 -5 19 -12 16 -55 -4 -64 -35 -98 -85 -98 -20 0 -44
7 -54 15 -11 7 -25 11 -33 8 -16 -6 -81 14 -90 29 -4 6 -10 26 -15 46 -10 47
10 86 59 111 40 20 42 21 72 21 15 0 20 7 20 28 0 16 3 32 7 35 12 13 44 7 50
-9z m283 -27 c30 -16 52 -36 65 -62 18 -34 28 -41 99 -64 91 -30 108 -48 86
-89 -20 -36 -71 -42 -97 -13 -10 12 -27 31 -37 43 l-20 22 -9 -25 c-28 -74
-39 -91 -69 -103 -32 -14 -88 -4 -88 15 0 17 -18 9 -23 -11 -8 -30 -51 -26
-65 5 -15 34 -15 88 0 103 24 24 72 14 107 -23 38 -41 42 -42 65 -16 33 36 17
54 -59 71 -64 14 -70 18 -70 40 0 28 13 30 93 15 36 -7 42 -5 36 8 -7 20 -39
31 -80 28 -58 -4 -75 58 -19 70 17 4 32 7 35 8 3 0 25 -10 50 -22z m355 -247
c4 -12 0 -42 -9 -68 -8 -26 -18 -60 -21 -75 -7 -36 -44 -54 -75 -37 -18 10
-21 9 -18 -2 3 -7 22 -14 46 -16 33 -2 44 1 54 17 7 12 18 21 25 21 6 0 14 14
18 31 13 60 85 61 121 1 15 -26 20 -29 40 -20 26 12 36 35 36 83 0 49 -10 60
-33 36 -39 -41 -89 -19 -89 38 0 33 4 40 29 51 60 24 119 3 135 -48 4 -12 10
-20 14 -18 12 7 7 -96 -6 -141 -29 -98 -132 -113 -169 -25 l-16 37 -9 -32 c-6
-24 -14 -33 -29 -33 -12 0 -37 -13 -56 -30 -31 -28 -57 -35 -108 -31 -30 3
-75 57 -75 89 0 50 46 102 90 102 47 0 65 37 34 71 -16 18 -11 64 7 54 5 -4 9
-1 9 6 0 16 47 -36 55 -61z m437 -116 c28 -15 32 -15 40 0 11 20 52 21 71 1
11 -11 31 -13 87 -8 67 6 72 5 68 -13 -2 -12 -18 -24 -46 -32 -41 -14 -51 -25
-32 -37 13 -8 13 -71 0 -95 -8 -15 -6 -21 10 -30 34 -18 43 -3 36 61 -8 72 -7
73 100 20 43 -21 88 -41 100 -45 27 -8 46 -50 38 -82 -6 -24 -42 -41 -74 -35
-28 5 -60 44 -60 72 0 31 -28 48 -36 21 -16 -49 -27 -64 -56 -76 -35 -15 -68
-8 -100 21 -9 8 -36 17 -59 18 -24 2 -50 12 -63 24 -12 12 -32 21 -43 21 -117
0 -173 89 -105 167 24 27 38 34 85 42 4 0 22 -6 39 -15z"/>
<path d="M5023 3198 c-33 -41 -66 -221 -58 -315 8 -106 26 -196 37 -185 6 6
11 21 11 35 1 14 5 24 8 22 11 -7 28 61 38 144 10 91 -1 265 -19 286 -5 6 -7
15 -3 18 3 4 4 7 1 7 -3 0 -10 -6 -15 -12z"/>
</g>
</svg>
